2.6Hz3min_grf.mot
version=1
nRows=30
nColumns 19
inDegrees=yes
endheader
time	1_ground_force_vx	1_ground_force_vy	1_ground_force_vz	1_ground_force_px	1_ground_force_py	1_ground_force_pz	1_ground_torque_x	1_ground_torque_y	1_ground_torque_z	2_ground_force_vx	2_ground_force_vy	2_ground_force_vz	2_ground_force_px	2_ground_force_py	2_ground_force_pz	2_ground_torque_x	2_ground_torque_y	2_ground_torque_z
            2.500000	            0.137868	            1.260903	            0.234349	           -0.233013	            0.005581	           -0.255695	           -0.386634	            0.074992	           -0.237275	           -1.677487	           -0.080235	           20.789867	           -0.232311	            0.006130	           -0.833667	            0.485650	           -4.422571	            0.097117
            2.500500	            0.229260	            1.621846	            0.143956	           -0.233013	            0.005581	           -0.255695	           -0.401581	            0.093273	           -0.176868	           -1.442675	           -0.262700	           20.554470	           -0.232311	            0.006130	           -0.833667	            0.429108	           -4.384560	           -0.015826
            2.501000	            0.229212	            1.261511	            0.096554	           -0.233013	            0.005581	           -0.255695	           -0.418598	            0.158697	           -0.345716	           -1.585801	            0.472716	           20.744870	           -0.232311	            0.006130	           -0.833667	            0.335196	           -4.375850	            0.097349
            2.501500	            0.000731	            0.359155	            0.322537	           -0.233013	            0.005581	           -0.255695	           -0.427861	            0.130949	           -0.374351	           -1.443217	           -0.079556	           20.836695	           -0.232311	            0.006130	           -0.833667	            0.410322	           -4.384628	           -0.015818
            2.502000	            0.137526	            1.261493	            0.096781	           -0.233013	            0.005581	           -0.255695	           -0.474637	            0.121187	           -0.236858	           -1.534882	           -0.632674	           20.928620	           -0.232311	            0.006130	           -0.833667	            0.428978	           -4.337632	            0.078594
            2.502500	           -0.091560	            1.801853	            0.191381	           -0.233013	            0.005581	           -0.255695	           -0.422590	            0.047148	           -0.247098	           -1.676096	           -0.449033	           20.929337	           -0.232311	            0.006130	           -0.833667	            0.466814	           -4.413051	            0.059458
            2.503000	            0.137805	            0.359968	            0.138772	           -0.233013	            0.005581	           -0.255695	           -0.476145	            0.075213	           -0.293414	           -1.490793	            0.104925	           20.696588	           -0.232311	            0.006130	           -0.833667	            0.466636	           -4.374904	           -0.034658
            2.503500	           -0.091021	            0.719669	            0.324311	           -0.233013	            0.005581	           -0.255695	           -0.483983	            0.046980	           -0.209311	           -1.491478	            0.289241	           20.650317	           -0.232311	            0.006130	           -0.833667	            0.448045	           -4.413253	            0.097166
            2.504000	            0.137706	            0.900765	            0.141091	           -0.233013	            0.005581	           -0.255695	           -0.363537	            0.093157	           -0.162049	           -1.539596	            0.656866	           20.792435	           -0.232311	            0.006130	           -0.833667	            0.410296	           -4.375242	            0.003066
            2.504500	            0.183225	            0.180498	           -0.045538	           -0.233013	            0.005581	           -0.255695	           -0.449628	            0.131016	           -0.366472	           -1.302667	           -0.079049	           20.836636	           -0.232311	            0.006130	           -0.833667	            0.372709	           -4.375243	           -0.034618
            2.505000	           -0.137205	            0.720250	            0.186857	           -0.233013	            0.005581	           -0.255695	           -0.403378	            0.139967	           -0.342654	           -1.491458	            0.289073	           20.697245	           -0.232311	            0.006130	           -0.833667	            0.429158	           -4.394147	            0.021841
            2.505500	            0.137934	            0.900372	            0.232803	           -0.233013	            0.005581	           -0.255695	           -0.480226	            0.130354	           -0.217994	           -1.352819	            0.841356	           20.886869	           -0.232311	            0.006130	           -0.833667	            0.522992	           -4.374701	           -0.034682
            2.506000	            0.413009	            0.179559	            0.183173	           -0.233013	            0.005581	           -0.255695	           -0.440273	            0.084350	           -0.225335	           -1.631925	            0.287896	           20.885017	           -0.232311	            0.006130	           -0.833667	            0.372862	           -4.413189	            0.002947
            2.506500	           -0.046253	            1.622579	           -0.038785	           -0.233013	            0.005581	           -0.255695	           -0.393974	            0.084220	           -0.263847	           -1.348188	           -0.447514	           20.835341	           -0.232311	            0.006130	           -0.833667	            0.391638	           -4.403870	            0.059524
            2.507000	           -0.183294	            1.441500	            0.144207	           -0.233013	            0.005581	           -0.255695	           -0.420146	            0.120568	           -0.137897	           -1.395702	           -0.263535	           20.836018	           -0.232311	            0.006130	           -0.833667	            0.429141	           -4.384829	            0.059575
            2.507500	           -0.092210	            1.622767	           -0.084528	           -0.233013	            0.005581	           -0.255695	           -0.373205	            0.084121	           -0.247055	           -1.446643	            0.842022	           20.605340	           -0.232311	            0.006130	           -0.833667	            0.372803	           -4.403534	           -0.053570
            2.508000	           -0.183342	            1.081165	            0.096805	           -0.233013	            0.005581	           -0.255695	           -0.512183	            0.065733	           -0.288276	           -1.441867	           -0.448020	           20.882309	           -0.232311	            0.006130	           -0.833667	            0.391689	           -4.413457	            0.097190
            2.508500	           -0.000000	            0.000000	           -0.000000	           -0.233013	            0.005581	           -0.255695	           -0.432340	            0.121048	           -0.223985	           -1.538287	            0.288737	           20.744193	           -0.232311	            0.006130	           -0.833667	            0.447851	           -4.374972	           -0.034650
            2.509000	            0.275121	            0.900988	            0.094894	           -0.233013	            0.005581	           -0.255695	           -0.455804	            0.112333	           -0.306258	           -1.396470	           -0.078550	           20.602035	           -0.232311	            0.006130	           -0.833667	            0.391545	           -4.384763	            0.003041
            2.509500	            0.092156	            0.539832	            0.231371	           -0.233013	            0.005581	           -0.255695	           -0.536117	            0.065295	           -0.144884	           -1.396990	            0.104427	           20.931189	           -0.232311	            0.006130	           -0.833667	            0.466804	           -4.403800	            0.116042
            2.510000	            0.046038	            0.179881	            0.092371	           -0.233013	            0.005581	           -0.255695	           -0.417681	            0.111993	           -0.259708	           -1.633981	            0.840844	           20.746204	           -0.232311	            0.006130	           -0.833667	            0.410220	           -4.356269	           -0.015716
            2.510500	           -0.045765	            1.441527	            0.143865	           -0.233013	            0.005581	           -0.255695	           -0.420455	            0.102709	           -0.263695	           -1.724460	           -0.079400	           20.508318	           -0.232311	            0.006130	           -0.833667	            0.372632	           -4.347086	            0.022034
            2.511000	           -0.000344	            1.262056	           -0.040445	           -0.233013	            0.005581	           -0.255695	           -0.449921	            0.120963	           -0.205188	           -1.678090	            0.103412	           20.931308	           -0.232311	            0.006130	           -0.833667	            0.372871	           -4.413256	            0.021798
            2.511500	            0.046604	            1.440365	            0.418773	           -0.233013	            0.005581	           -0.255695	           -0.413455	            0.121329	           -0.278521	           -1.543624	            1.762091	           20.702521	           -0.232311	            0.006130	           -0.833667	            0.316344	           -4.366196	            0.021990
            2.512000	            0.046020	            0.900747	            0.141319	           -0.233013	            0.005581	           -0.255695	           -0.345011	            0.112009	           -0.259914	           -1.397011	            0.104594	           20.884261	           -0.232311	            0.006130	           -0.833667	            0.353948	           -4.366329	            0.097375
            2.512500	            0.136843	            1.262673	           -0.178354	           -0.233013	            0.005581	           -0.255695	           -0.406721	            0.075215	           -0.293618	           -1.397114	            0.105431	           20.649620	           -0.232311	            0.006130	           -0.833667	            0.335087	           -4.356608	            0.003166
            2.513000	            0.045694	            1.441938	            0.051926	           -0.233013	            0.005581	           -0.255695	           -0.322669	            0.075036	           -0.260147	           -1.114623	           -0.262353	           20.788971	           -0.232311	            0.006130	           -0.833667	            0.391469	           -4.365790	           -0.015742
            2.513500	            0.091977	            0.900560	            0.187061	           -0.233013	            0.005581	           -0.255695	           -0.459307	            0.074552	           -0.145047	           -1.490731	            0.104423	           20.837372	           -0.232311	            0.006130	           -0.833667	            0.391562	           -4.384897	            0.040741
            2.514000	           -0.046088	            0.721250	           -0.042650	           -0.233013	            0.005581	           -0.255695	           -0.543616	            0.075029	           -0.282281	           -1.727077	            0.656859	           20.604803	           -0.232311	            0.006130	           -0.833667	            0.316369	           -4.366397	            0.078541
            2.514500	           -0.091625	            2.162384	            0.192927	           -0.233013	            0.005581	           -0.255695	           -0.460289	            0.139413	           -0.209025	           -1.680748	            0.840005	           20.933936	           -0.232311	            0.006130	           -0.833667	            0.485284	           -4.327842	            0.040903
